<svg width="31" height="31" viewBox="0 0 31 31" fill="none" xmlns="http://www.w3.org/2000/svg">
<g clip-path="url(#clip0_586_594)">
<path d="M27.3265 18.4395C27.4508 18.4688 27.5751 18.4834 27.6995 18.4834C27.8823 18.4834 28.0725 18.4541 28.2481 18.3883C28.5406 18.2786 28.7966 18.0884 28.9868 17.8397C29.177 17.5764 29.2867 17.2546 29.294 16.9254L29.3086 15.4626C29.3086 15.3309 29.4184 15.2212 29.55 15.2285C29.6817 15.2285 29.7914 15.3382 29.7841 15.4699L29.7694 16.9327C29.7694 17.357 29.6232 17.7812 29.3672 18.125C29.1258 18.4541 28.7893 18.7028 28.409 18.8418C28.1822 18.9222 27.9409 18.9661 27.6995 18.9661C27.5386 18.9661 27.3703 18.9442 27.2167 18.9076C27.0851 18.8784 27.0119 18.7467 27.0412 18.6224C27.0705 18.4907 27.2021 18.4176 27.3265 18.4468V18.4395Z" fill="#004D89" stroke="#004D89" stroke-linecap="round" stroke-linejoin="round"/>
<path d="M27.3265 12.6173C27.4508 12.588 27.5751 12.5734 27.6995 12.5734C27.8823 12.5734 28.0725 12.6026 28.2481 12.6685C28.5406 12.7782 28.7966 12.9684 28.9868 13.217C29.177 13.4804 29.2867 13.8022 29.294 14.1313L29.3086 15.5942C29.3086 15.7259 29.4184 15.8356 29.55 15.8283C29.6817 15.8283 29.7914 15.7186 29.7841 15.5869L29.7694 14.124C29.7694 13.6998 29.6232 13.2756 29.3672 12.9318C29.1258 12.6026 28.7893 12.354 28.409 12.215C28.1822 12.1345 27.9409 12.0906 27.6995 12.0906C27.5386 12.0906 27.3703 12.1126 27.2167 12.1492C27.0851 12.1784 27.0119 12.3101 27.0412 12.4344C27.0705 12.5661 27.2021 12.6392 27.3265 12.61V12.6173Z" fill="#004D89" stroke="#004D89" stroke-width="0.68" stroke-linecap="round" stroke-linejoin="round"/>
<path d="M9.01123 2.44301C8.90151 3.53284 7.92139 4.33011 6.83155 4.22039C5.74171 4.11068 4.94445 3.13055 5.05416 2.04072C5.16388 0.950878 6.144 0.153614 7.23384 0.263329C8.32368 0.373044 9.12094 1.35317 9.01123 2.44301ZM8.53579 2.3918C8.62357 1.55797 8.01647 0.81922 7.18264 0.731448C6.3488 0.643675 5.61005 1.25077 5.52228 2.07729C5.43451 2.91112 6.0416 3.64987 6.87543 3.73765C7.70927 3.82542 8.44802 3.21833 8.53579 2.3918Z" fill="#004D89" stroke="#004D89" stroke-width="0.68" stroke-linecap="round" stroke-linejoin="round"/>
<path d="M24.9932 2.44301C24.8834 3.53284 23.9033 4.33011 22.8135 4.22039C21.7236 4.11068 20.9264 3.13055 21.0361 2.04072C21.1458 0.950878 22.1259 0.153614 23.2158 0.263329C24.3056 0.373044 25.1029 1.35317 24.9932 2.44301ZM24.5177 2.3918C24.6055 1.55797 23.9984 0.81922 23.1646 0.731448C22.3307 0.643675 21.592 1.25077 21.5042 2.07729C21.4164 2.91112 22.0235 3.64987 22.8574 3.73765C23.6912 3.82542 24.43 3.21833 24.5177 2.3918Z" fill="#004D89" stroke="#004D89" stroke-width="0.68" stroke-linecap="round" stroke-linejoin="round"/>
<path d="M2.50145 16.1428L2.54534 13.5827C2.58923 11.6005 3.50352 9.66225 4.98833 8.36029C6.2464 7.26314 7.89945 6.62679 9.57443 6.59753L15.0383 6.61948C15.1699 6.61948 15.2796 6.72919 15.2796 6.86085C15.2796 6.99251 15.1699 7.10222 15.0383 7.10222L9.57443 7.08028C8.01648 7.10222 6.46583 7.69469 5.29554 8.7187C3.90581 9.93288 3.05735 11.7468 3.01346 13.5901L2.96957 16.1501C2.96957 16.2817 2.85986 16.3841 2.7282 16.3841C2.59654 16.3841 2.49414 16.2744 2.49414 16.1428H2.50145Z" fill="#004D89" stroke="#004D89" stroke-linecap="round" stroke-linejoin="round"/>
<path d="M27.5239 14.9067L27.48 17.4667C27.4361 19.4489 26.5218 21.3872 25.037 22.6891C23.779 23.7863 22.1259 24.4226 20.4509 24.4519L14.9871 24.4299C14.8554 24.4299 14.7457 24.3202 14.7457 24.1886C14.7457 24.0569 14.8554 23.9472 14.9871 23.9472L20.4509 23.9691C22.0089 23.9472 23.5522 23.3547 24.7298 22.3307C26.1195 21.1165 26.968 19.3026 27.0119 17.4594L27.0558 14.8993C27.0558 14.7677 27.1655 14.6653 27.2972 14.6653C27.4288 14.6653 27.5312 14.775 27.5312 14.9067H27.5239Z" fill="#004D89" stroke="#004D89" stroke-linecap="round" stroke-linejoin="round"/>
<path d="M27.5239 16.1428L27.48 13.5827C27.4361 11.6005 26.5218 9.66225 25.037 8.36029C23.779 7.26314 22.1259 6.62679 20.4509 6.59753L14.9871 6.61948C14.8554 6.61948 14.7457 6.72919 14.7457 6.86085C14.7457 6.99251 14.8554 7.10222 14.9871 7.10222L20.4509 7.08028C22.0089 7.10222 23.5522 7.69469 24.7298 8.7187C26.1195 9.93288 26.968 11.7468 27.0119 13.5901L27.0558 16.1501C27.0558 16.2817 27.1655 16.3841 27.2972 16.3841C27.4288 16.3841 27.5312 16.2744 27.5312 16.1428H27.5239Z" fill="#004D89" stroke="#004D89" stroke-linecap="round" stroke-linejoin="round"/>
<path d="M2.50145 14.9067L2.54534 17.4667C2.58923 19.4489 3.50352 21.3872 4.98833 22.6891C6.2464 23.7863 7.89945 24.4226 9.57443 24.4519L15.0383 24.4299C15.1699 24.4299 15.2796 24.3202 15.2796 24.1886C15.2796 24.0569 15.1699 23.9472 15.0383 23.9472L9.57443 23.9691C8.01648 23.9472 6.46583 23.3547 5.29554 22.3307C3.90581 21.1165 3.05735 19.3026 3.01346 17.4594L2.96957 14.8993C2.96957 14.7677 2.85986 14.6653 2.7282 14.6653C2.59654 14.6653 2.49414 14.775 2.49414 14.9067H2.50145Z" fill="#004D89" stroke="#004D89" stroke-linecap="round" stroke-linejoin="round"/>
<path d="M2.69893 12.6173C2.57459 12.588 2.45025 12.5734 2.3259 12.5734C2.14304 12.5734 1.95287 12.6026 1.77733 12.6685C1.48475 12.7782 1.22875 12.9684 1.03858 13.217C0.848404 13.4804 0.738688 13.8022 0.731374 14.1313L0.716745 15.5942C0.716745 15.7259 0.60703 15.8356 0.475372 15.8283C0.343713 15.8283 0.233998 15.7186 0.241313 15.5869H0.248627L0.263256 14.124C0.263256 13.6998 0.409543 13.2756 0.665545 12.9318C0.906919 12.6026 1.24338 12.354 1.62372 12.215C1.85047 12.1345 2.09184 12.0906 2.33322 12.0906C2.49413 12.0906 2.66236 12.1126 2.81596 12.1492C2.94762 12.1784 3.02077 12.3101 2.99151 12.4344C2.96225 12.5661 2.83059 12.6392 2.70625 12.61L2.69893 12.6173Z" fill="#004D89" stroke="#004D89" stroke-width="0.68" stroke-linecap="round" stroke-linejoin="round"/>
<path d="M2.69893 18.4395C2.57459 18.4688 2.45025 18.4834 2.3259 18.4834C2.14304 18.4834 1.95287 18.4541 1.77733 18.3883C1.48475 18.2786 1.22875 18.0884 1.03858 17.8397C0.848404 17.5764 0.738688 17.2546 0.731374 16.9254L0.716745 15.4626C0.716745 15.3309 0.60703 15.2212 0.475372 15.2285C0.343713 15.2285 0.233998 15.3382 0.241313 15.4699L0.255941 16.9327C0.255941 17.357 0.402228 17.7812 0.658231 18.125C0.899604 18.4541 1.23606 18.7028 1.61641 18.8418C1.84316 18.9222 2.08453 18.9661 2.3259 18.9661C2.48682 18.9661 2.65505 18.9442 2.80865 18.9076C2.94031 18.8784 3.01345 18.7467 2.98419 18.6224C2.95494 18.4907 2.82328 18.4176 2.69893 18.4468V18.4395Z" fill="#004D89" stroke="#004D89" stroke-linecap="round" stroke-linejoin="round"/>
<path d="M6.9998 3.90588C6.86814 3.90588 6.75842 4.0156 6.75842 4.14726V7.23391V7.52649C6.75842 7.60694 6.79499 7.67277 6.85351 7.71666C6.97785 7.65815 7.1022 7.60694 7.23386 7.55574C7.23386 7.55574 7.23386 7.54112 7.23386 7.52649V7.04374V4.22772V4.15457C7.23386 4.02291 7.12414 3.9132 6.99248 3.9132L6.9998 3.90588Z" fill="#004D89" stroke="#004D89" stroke-width="0.68" stroke-linecap="round" stroke-linejoin="round"/>
<path d="M23.0256 3.90587C22.8939 3.90587 22.7842 4.01559 22.7842 4.14725V4.22039V7.04373V7.52648C22.7842 7.53379 22.7842 7.54111 22.7842 7.55573C22.9158 7.60693 23.0402 7.65814 23.1645 7.71665C23.223 7.67276 23.2596 7.60693 23.2596 7.52648V7.2339V4.21308V4.13993C23.2596 4.00827 23.1499 3.89856 23.0182 3.89856L23.0256 3.90587Z" fill="#004D89" stroke="#004D89" stroke-width="0.68" stroke-linecap="round" stroke-linejoin="round"/>
<path d="M12.4344 18.6004L12.5514 18.7906V18.7759L12.6684 18.9588V18.9442L12.8001 19.1197L12.7855 19.1051L12.9391 19.266L12.9244 19.2514L13.0927 19.405L13.078 19.3904L13.2536 19.5293H13.2389L13.4218 19.6464H13.4072L13.6047 19.7488H13.59L13.7948 19.8365H13.7802L13.9923 19.917H13.9777L14.1898 19.9828H14.1752L14.3946 20.034H14.38L14.5994 20.0706H14.5848L14.8115 20.0925H14.7969H15.0237H15.009L15.2358 20.0852H15.2211L15.4479 20.056H15.4333L15.66 20.0121H15.6454L15.8648 19.9536H15.8502L16.0696 19.8804H16.055L16.2671 19.7926H16.2525L16.4573 19.6902H16.4426L16.6401 19.5805H16.6255L16.8084 19.4562H16.7937L16.9693 19.3172L16.9546 19.3318L17.1156 19.1709L17.1009 19.1856L17.2545 19.01L17.2399 19.0246L17.3789 18.8418V18.8564L17.4959 18.6662V18.6809L17.5983 18.4834C17.6641 18.3663 17.8104 18.3298 17.9201 18.3883C18.0372 18.4541 18.0737 18.6004 18.0152 18.7101L17.9055 18.9076C17.9055 18.9076 17.9055 18.9149 17.8982 18.9222L17.7738 19.1124C17.7738 19.1124 17.7738 19.1197 17.7665 19.127L17.6276 19.3099C17.6276 19.3099 17.6276 19.3172 17.6129 19.3245L17.4593 19.4928C17.4593 19.4928 17.452 19.5001 17.4447 19.5074L17.2838 19.6683C17.2838 19.6683 17.2765 19.6756 17.2692 19.6829L17.0936 19.8292C17.0936 19.8292 17.0863 19.8292 17.079 19.8365L16.8961 19.9682C16.8961 19.9682 16.8888 19.9682 16.8815 19.9755L16.684 20.0998C16.684 20.0998 16.6767 20.0998 16.6694 20.1072L16.4646 20.2169C16.4646 20.2169 16.4573 20.2169 16.4499 20.2242L16.2378 20.312C16.2378 20.312 16.2305 20.312 16.2232 20.312L16.0038 20.3851C16.0038 20.3851 15.9965 20.3851 15.9891 20.3851L15.7697 20.4436H15.7551L15.5283 20.4875H15.5137L15.287 20.5168H15.2723H15.0456L15.031 20.5241H14.8042H14.7896L14.5628 20.5021H14.5482L14.3288 20.4656H14.3142L14.0947 20.4144C14.0947 20.4144 14.0874 20.4144 14.0801 20.4144L13.868 20.3485C13.868 20.3485 13.8607 20.3485 13.8534 20.3485L13.6412 20.2608C13.6412 20.2608 13.6339 20.2608 13.6266 20.2608L13.4218 20.1584C13.4218 20.1584 13.4145 20.1584 13.4072 20.151L13.2097 20.0413C13.2097 20.0413 13.2024 20.0413 13.1951 20.034L13.0122 19.9097C13.0122 19.9097 13.0049 19.9097 12.9976 19.9024L12.822 19.7634C12.822 19.7634 12.8147 19.7634 12.8074 19.7488L12.6392 19.5952C12.6392 19.5952 12.6319 19.5878 12.6245 19.5805L12.4709 19.4196C12.4709 19.4196 12.4636 19.4123 12.4563 19.405L12.3173 19.2294C12.3173 19.2294 12.3173 19.2221 12.31 19.2148L12.1784 19.032C12.1784 19.032 12.1784 19.0246 12.1711 19.0173L12.054 18.8271C11.9882 18.7174 12.0248 18.5638 12.1345 18.498C12.2442 18.4322 12.3978 18.4687 12.4636 18.5785L12.4344 18.6004Z" fill="#004D89" stroke="#004D89" stroke-linecap="round" stroke-linejoin="round"/>
<path d="M11.6225 13.751C11.6225 14.6433 11.1397 15.3675 10.5473 15.3675C9.95479 15.3675 9.47205 14.6433 9.47205 13.751C9.47205 12.8586 9.95479 12.1345 10.5473 12.1345C11.1397 12.1345 11.6225 12.8586 11.6225 13.751Z" fill="#004D89" stroke="#004D89" stroke-width="0.68" stroke-linecap="round" stroke-linejoin="round"/>
<path d="M20.5534 13.7144C20.5534 14.6068 20.0706 15.3309 19.4782 15.3309C18.8857 15.3309 18.403 14.6068 18.403 13.7144C18.403 12.8221 18.8857 12.098 19.4782 12.098C20.0706 12.098 20.5534 12.8221 20.5534 13.7144Z" fill="#004D89" stroke="#004D89" stroke-width="0.68" stroke-linecap="round" stroke-linejoin="round"/>
<path d="M4.62999 31.4976C4.70314 30.576 5.02497 29.669 5.58086 28.9303C6.44395 27.7746 7.84831 27.0432 9.28192 26.9847L20.1364 26.8676C21.2701 26.8969 22.3819 27.2992 23.2816 27.9794C24.1813 28.667 24.8542 29.6398 25.1833 30.7223C25.2565 30.971 25.3077 31.2343 25.3515 31.4976H25.8343C25.7904 31.1904 25.7319 30.8832 25.6441 30.5907C25.2857 29.413 24.5543 28.3525 23.5742 27.6064C22.594 26.8603 21.3799 26.4288 20.151 26.3922C20.151 26.3922 20.151 26.3922 20.1437 26.3922L9.28192 26.5092C7.70202 26.5678 6.16601 27.3723 5.21514 28.645C4.60074 29.4716 4.24233 30.4736 4.16919 31.5049H4.64462L4.62999 31.4976Z" fill="white" stroke="#004D89" stroke-linecap="round" stroke-linejoin="round"/>
</g>
<defs>
<clipPath id="clip0_586_594">
<rect width="30.0254" height="30.808" fill="white"/>
</clipPath>
</defs>
</svg>
