<svg width="27" height="30" viewBox="0 0 27 30" fill="none" xmlns="http://www.w3.org/2000/svg">
<path d="M18.9662 28.675L18.5242 28.0671V22.9055C18.4738 22.28 18.1269 21.5201 17.4891 20.6257C20.1413 20.1522 22.0716 19.3572 23.2746 18.2232C24.8749 16.5105 25.6751 14.2716 25.6751 11.5009V10.057C25.5575 8.91131 25.0652 7.63699 24.2035 6.21653C24.0916 6.21653 23.9741 6.08793 23.851 5.84242C24.086 5.07666 24.2035 4.39273 24.2035 3.79065V3.55682C24.0356 1.63365 23.767 0.674988 23.4089 0.674988C22.1668 0.674988 20.5777 1.35307 18.6305 2.71507C17.0191 2.31758 15.8832 2.10714 15.2174 2.10714H12.733C12.3357 2.10714 11.2335 2.31173 9.42617 2.71507C7.5853 1.35891 5.96265 0.680833 4.54703 0.680833C4.22809 1.18939 3.99868 2.18313 3.8644 3.67958V3.93094C4.08261 5.12927 4.19452 5.76058 4.19452 5.84242C2.99152 7.53177 2.38722 9.32634 2.38722 11.2437C2.38722 15.1485 3.75249 17.8374 6.48302 19.2871C7.3503 19.8483 8.59806 20.2516 10.2207 20.4971H10.5564V20.7309C10.1256 21.2453 9.7507 22.0754 9.43176 23.2445C8.77151 23.49 8.01614 23.6186 7.16565 23.6186H7.03136C5.92908 23.6186 4.79882 22.619 3.64058 20.6199C2.81807 19.8892 2.02353 19.5268 1.24577 19.5268L0.675049 19.7781C0.675049 20.0002 1.24577 20.6374 2.38722 21.6896C2.64461 22.0053 3.17617 22.999 3.9763 24.6884C4.79882 25.571 6.09134 26.0153 7.84828 26.0153C8.31829 25.9393 8.84985 25.9042 9.43736 25.9042L9.54927 26.138V28.4178" stroke="#004D89" stroke-width="1.35" stroke-linecap="round" stroke-linejoin="round"/>
</svg>
